<svg width="30" height="30" viewBox="0 0 30 30" fill="none" xmlns="http://www.w3.org/2000/svg">
<path d="M19 19V20C19 20.5304 18.7893 21.0391 18.4142 21.4142C18.0391 21.7893 17.5304 22 17 22H6C5.46957 22 4.96086 21.7893 4.58579 21.4142C4.21071 21.0391 4 20.5304 4 20V10C4 9.46957 4.21071 8.96086 4.58579 8.58579C4.96086 8.21071 5.46957 8 6 8H8M13.66 8H17C17.5304 8 18.0391 8.21071 18.4142 8.58579C18.7893 8.96086 19 9.46957 19 10V13.34L20 14.34L26 10V20" stroke="#010564" stroke-width="2" stroke-linecap="round" stroke-linejoin="round"/>
<path d="M4 4L26 26" stroke="#010564" stroke-width="2" stroke-linecap="round" stroke-linejoin="round"/>
</svg>
