<svg width="31" height="27" viewBox="0 0 31 27" fill="none" xmlns="http://www.w3.org/2000/svg">
<path d="M25.5008 12C24.9893 12 24.4988 12.2032 24.1371 12.5649C23.7755 12.9265 23.5723 13.4171 23.5723 13.9286V19.0714C23.5723 19.5829 23.7755 20.0735 24.1371 20.4351C24.4988 20.7968 24.9893 21 25.5008 21C26.0123 21 26.5029 20.7968 26.8645 20.4351C27.2262 20.0735 27.4294 19.5829 27.4294 19.0714V13.9286C27.4294 13.4171 27.2262 12.9265 26.8645 12.5649C26.5029 12.2032 26.0123 12 25.5008 12V12Z" fill="#010564" stroke="#010564" stroke-width="1.3" stroke-linecap="round" stroke-linejoin="round"/>
<path d="M30 17.7852V19.0709C30 20.2643 29.5259 21.4089 28.682 22.2529C27.8381 23.0968 26.6935 23.5709 25.5 23.5709C24.3065 23.5709 23.1619 23.0968 22.318 22.2529C21.4741 21.4089 21 20.2643 21 19.0709V17.7852" stroke="#010564" stroke-width="1.3" stroke-linecap="round" stroke-linejoin="round"/>
<path d="M25.499 23.5708V26.1422" stroke="#010564" stroke-width="1.3" stroke-linecap="round" stroke-linejoin="round"/>
<path d="M22.9277 26.1426H28.0706" stroke="#010564" stroke-width="1.3" stroke-linecap="round" stroke-linejoin="round"/>
<path d="M12.075 18.0667H13.6825V18.35H7.3175V18.0667H8.925H9.575V17.4167V14.7778V14.1278H8.925H1.575C1.33983 14.1278 1.13498 14.0471 0.933403 13.8444H1.575H19.425H20.0666C19.865 14.0471 19.6602 14.1278 19.425 14.1278H12.075H11.425V14.7778V17.4167V18.0667H12.075ZM0.925 13.1944V13.8359C0.729453 13.6359 0.65 13.4308 0.65 13.1944V1.58333C0.65 1.34696 0.729454 1.14187 0.925 0.941852V1.58333V13.1944ZM1.575 0.933333H0.933402C1.13498 0.730721 1.33983 0.65 1.575 0.65H19.425C19.6602 0.65 19.865 0.73072 20.0666 0.933333H19.425H1.575ZM20.075 1.58333V0.941853C20.2705 1.14187 20.35 1.34696 20.35 1.58333V13.1944C20.35 13.4308 20.2705 13.6359 20.075 13.8359V13.1944V1.58333Z" fill="#010564" stroke="#010564" stroke-width="1.3"/>
</svg>
