<svg width="30" height="30" viewBox="0 0 30 30" fill="none" xmlns="http://www.w3.org/2000/svg">
<path d="M4 4.00293L26 26.0029" stroke="#010564" stroke-width="2" stroke-linecap="round" stroke-linejoin="round"/>
<path d="M12 12.003V15.003C12.0005 15.596 12.1768 16.1755 12.5064 16.6684C12.8361 17.1612 13.3045 17.5453 13.8523 17.7722C14.4002 17.999 15.0029 18.0584 15.5845 17.9429C16.1661 17.8273 16.7005 17.542 17.12 17.123M18 12.343V7.00302C18.0007 6.25905 17.725 5.54134 17.2264 4.98922C16.7277 4.4371 16.0417 4.08996 15.3015 4.0152C14.5613 3.94043 13.8197 4.14336 13.2207 4.58461C12.6217 5.02586 12.208 5.67393 12.06 6.40302" stroke="#010564" stroke-width="2" stroke-linecap="round" stroke-linejoin="round"/>
<path d="M20.0002 19.9529C19.024 20.9494 17.7723 21.6314 16.4058 21.9115C15.0393 22.1917 13.6202 22.0571 12.3307 21.5252C11.0411 20.9933 9.93995 20.0882 9.16836 18.9261C8.39677 17.764 7.98998 16.3978 8.00019 15.0029V13.0029M22.0002 13.0029V15.0029C21.9998 15.4154 21.963 15.827 21.8902 16.2329" stroke="#010564" stroke-width="2" stroke-linecap="round" stroke-linejoin="round"/>
<path d="M15 22.0029V26.0029" stroke="#010564" stroke-width="2" stroke-linecap="round" stroke-linejoin="round"/>
<path d="M11 26.0029H19" stroke="#010564" stroke-width="2" stroke-linecap="round" stroke-linejoin="round"/>
</svg>
