<svg width="31" height="27" fill="none" version="1.1" viewBox="0 0 31 27" xmlns="http://www.w3.org/2000/svg">
 <g stroke="#010564" stroke-linecap="round" stroke-linejoin="round" stroke-width="1.3">
  <path d="m25.501 12c-0.5115 0-1.002 0.2032-1.3637 0.5649-0.3616 0.3616-0.5648 0.8522-0.5648 1.3637v5.1428c0 0.5115 0.2032 1.0021 0.5648 1.3637 0.3617 0.3617 0.8522 0.5649 1.3637 0.5649s1.0021-0.2032 1.3637-0.5649c0.3617-0.3616 0.5649-0.8522 0.5649-1.3637v-5.1428c0-0.5115-0.2032-1.0021-0.5649-1.3637-0.3616-0.3617-0.8522-0.5649-1.3637-0.5649z" fill="#010564"/>
  <path d="m30 17.785v1.2857c0 1.1934-0.4741 2.338-1.318 3.182-0.8439 0.8439-1.9885 1.318-3.182 1.318s-2.3381-0.4741-3.182-1.318c-0.8439-0.844-1.318-1.9886-1.318-3.182v-1.2857"/>
  <path d="m25.499 23.571v2.5714"/>
  <path d="m22.928 26.143h5.1429"/>
 </g>
 <path d="m6.6675 19v-1.5833h2.2575v-2.6389h-7.35c-0.42 0-0.7875-0.1584-1.1025-0.475-0.315-0.3167-0.4725-0.6861-0.4725-1.1084v-11.611c0-0.42222 0.1575-0.79166 0.4725-1.1083s0.6825-0.475 1.1025-0.475h17.85c0.42 0 0.7875 0.15833 1.1025 0.475s0.4725 0.68611 0.4725 1.1083v11.611c0 0.4223-0.1575 0.7917-0.4725 1.1084-0.315 0.3166-0.6825 0.475-1.1025 0.475h-7.35v2.6389h2.2575v1.5833h-7.665zm-5.0925-5.8056h17.85v-11.611h-17.85v11.611zm0 0v-11.611 11.611z" fill="#010564" stroke="#010564" stroke-width="0"/>
</svg>