<svg width="150" height="168" viewBox="0 0 150 168" fill="none" xmlns="http://www.w3.org/2000/svg">
<path d="M145 162.5V145C145 135.717 141.313 126.815 134.749 120.251C128.185 113.687 119.283 110 110 110H40C30.7174 110 21.815 113.687 15.2513 120.251C8.68749 126.815 5 135.717 5 145V162.5" fill="#010564"/>
<path d="M145 162.5V145C145 135.717 141.313 126.815 134.749 120.251C128.185 113.687 119.283 110 110 110H40C30.7174 110 21.815 113.687 15.2513 120.251C8.68749 126.815 5 135.717 5 145V162.5" stroke="#010564" stroke-width="10" stroke-linecap="round" stroke-linejoin="round"/>
<path d="M75 75C94.33 75 110 59.33 110 40C110 20.67 94.33 5 75 5C55.67 5 40 20.67 40 40C40 59.33 55.67 75 75 75Z" fill="#010564" stroke="#010564" stroke-width="10" stroke-linecap="round" stroke-linejoin="round"/>
</svg>
