<svg width="150" height="168" viewBox="0 0 150 168" fill="none" xmlns="http://www.w3.org/2000/svg">
<path d="M145 162V144.667C145 135.472 141.312 126.655 134.749 120.153C128.185 113.652 119.283 110 110 110H40C30.7174 110 21.815 113.652 15.2513 120.153C8.68749 126.655 5 135.472 5 144.667V162" fill="#010564"/>
<path d="M145 157V141.333C145 133.023 141.313 125.053 134.749 119.177C128.185 113.301 119.283 110 110 110H40C30.7174 110 21.815 113.301 15.2513 119.177C8.68749 125.053 5 133.023 5 141.333V157" stroke="#010564" stroke-width="10" stroke-linecap="round" stroke-linejoin="round"/>
<path d="M75 75C94.33 75 110 59.33 110 40C110 20.67 94.33 5 75 5C55.67 5 40 20.67 40 40C40 59.33 55.67 75 75 75Z" fill="#010564" stroke="#010564" stroke-width="10" stroke-linecap="round" stroke-linejoin="round"/>
</svg>
